<svg xmlns="http://www.w3.org/2000/svg" viewBox="0 0 880 480" font-family="Inter, -apple-system, Helvetica, Arial, sans-serif">
  <defs>
    <marker id="arrGray" markerWidth="8" markerHeight="6" refX="7" refY="3" orient="auto">
      <polygon points="0 0, 8 3, 0 6" fill="#6B7280"/>
    </marker>
    <linearGradient id="bgGrad" x1="0" y1="0" x2="0" y2="1">
      <stop offset="0%" stop-color="#F8FAFC"/>
      <stop offset="100%" stop-color="#F1F5F9"/>
    </linearGradient>
    <linearGradient id="nzGrad" x1="0" y1="0" x2="0" y2="1">
      <stop offset="0%" stop-color="#3B82F6"/>
      <stop offset="100%" stop-color="#2563EB"/>
    </linearGradient>
    <linearGradient id="ndGrad" x1="0" y1="0" x2="0" y2="1">
      <stop offset="0%" stop-color="#10B981"/>
      <stop offset="100%" stop-color="#059669"/>
    </linearGradient>
    <linearGradient id="dualGrad" x1="0" y1="0" x2="0" y2="1">
      <stop offset="0%" stop-color="#8B5CF6"/>
      <stop offset="100%" stop-color="#6D28D9"/>
    </linearGradient>
    <linearGradient id="tmaGrad" x1="0" y1="0" x2="0" y2="1">
      <stop offset="0%" stop-color="#94A3B8"/>
      <stop offset="100%" stop-color="#64748B"/>
    </linearGradient>
    <filter id="sh" x="-4%" y="-4%" width="110%" height="116%">
      <feDropShadow dx="0" dy="3" stdDeviation="4" flood-color="#0F172A" flood-opacity="0.10"/>
    </filter>
  </defs>

  <rect width="880" height="480" fill="url(#bgGrad)" rx="12"/>
  <rect x="0" y="0" width="880" height="52" fill="#1E293B" rx="12 12 0 0"/>
  <rect x="0" y="40" width="880" height="12" fill="#1E293B"/>

  <text x="440" y="34" text-anchor="middle" font-size="16" font-weight="700" fill="#F8FAFC" letter-spacing="0.5">方案 P — TR + TMA 无转换架构（Passthrough Transform）</text>

  <!-- Legend -->
  <line x1="580" y1="72" x2="620" y2="72" stroke="#6B7280" stroke-width="2" marker-end="url(#arrGray)"/>
  <text x="628" y="76" font-size="10" fill="#64748B">同域直传</text>

  <!-- === 共享组件 === -->
  <!-- Cube (NZ) -->
  <rect x="60" y="120" width="140" height="60" rx="10" fill="url(#nzGrad)" filter="url(#sh)"/>
  <text x="130" y="148" text-anchor="middle" font-size="16" font-weight="700" fill="#fff">Cube</text>
  <text x="130" y="166" text-anchor="middle" font-size="11" fill="#BFDBFE">NZ</text>

  <!-- Vec (ND) -->
  <rect x="60" y="320" width="140" height="60" rx="10" fill="url(#ndGrad)" filter="url(#sh)"/>
  <text x="130" y="348" text-anchor="middle" font-size="16" font-weight="700" fill="#fff">Vec</text>
  <text x="130" y="366" text-anchor="middle" font-size="11" fill="#A7F3D0">ND</text>

  <!-- GM (NZ + ND) — 与 TR 等高 -->
  <rect x="720" y="120" width="140" height="260" rx="10" fill="url(#dualGrad)" filter="url(#sh)"/>
  <text x="790" y="248" text-anchor="middle" font-size="16" font-weight="700" fill="#fff">GM</text>
  <text x="790" y="268" text-anchor="middle" font-size="11" fill="#DDD6FE">NZ + ND</text>

  <!-- === 方案P特有 === -->
  <!-- TR (NZ + ND) — 与 GM 等高 -->
  <rect x="385" y="120" width="150" height="260" rx="10" fill="url(#dualGrad)" filter="url(#sh)"/>
  <text x="460" y="245" text-anchor="middle" font-size="18" font-weight="700" fill="#fff">TR</text>
  <text x="460" y="268" text-anchor="middle" font-size="11" fill="#DDD6FE">NZ + ND</text>

  <!-- TMA — 位于 TR 和 GM 之间，仅做同域搬运 -->
  <rect x="580" y="200" width="100" height="80" rx="10" fill="url(#tmaGrad)" filter="url(#sh)"/>
  <text x="630" y="235" text-anchor="middle" font-size="15" font-weight="700" fill="#fff">TMA</text>
  <text x="630" y="255" text-anchor="middle" font-size="10" fill="#E2E8F0">搬运</text>

  <!-- === 连线（全部同域直传） === -->
  <!-- Cube ↔ TR 双向 -->
  <line x1="200" y1="150" x2="377" y2="150" stroke="#6B7280" stroke-width="2" marker-end="url(#arrGray)"/>
  <line x1="377" y1="162" x2="200" y2="162" stroke="#6B7280" stroke-width="2" marker-end="url(#arrGray)"/>
  <!-- Vec ↔ TR 双向 -->
  <line x1="200" y1="350" x2="377" y2="350" stroke="#6B7280" stroke-width="2" marker-end="url(#arrGray)"/>
  <line x1="377" y1="362" x2="200" y2="362" stroke="#6B7280" stroke-width="2" marker-end="url(#arrGray)"/>

  <!-- TR ↔ TMA 双向同域直传 -->
  <line x1="535" y1="225" x2="572" y2="225" stroke="#6B7280" stroke-width="2" marker-end="url(#arrGray)"/>
  <line x1="572" y1="255" x2="535" y2="255" stroke="#6B7280" stroke-width="2" marker-end="url(#arrGray)"/>

  <!-- TMA ↔ GM 双向同域直传 -->
  <line x1="680" y1="225" x2="712" y2="225" stroke="#6B7280" stroke-width="2" marker-end="url(#arrGray)"/>
  <line x1="712" y1="255" x2="680" y2="255" stroke="#6B7280" stroke-width="2" marker-end="url(#arrGray)"/>

  <!-- 方案标签 -->
  <rect x="30" y="440" width="80" height="24" rx="6" fill="#1E293B"/>
  <text x="70" y="456" text-anchor="middle" font-size="11" font-weight="600" fill="#F8FAFC">方案 P</text>
</svg>
